<?xml version="1.0" standalone="no"?>
<!DOCTYPE svg PUBLIC "-//W3C//DTD SVG 20010904//EN"
 "http://www.w3.org/TR/2001/REC-SVG-20010904/DTD/svg10.dtd">
<svg version="1.0" xmlns="http://www.w3.org/2000/svg"
 width="372.000000pt" height="60.000000pt" viewBox="0 0 372.000000 60.000000"
 preserveAspectRatio="xMidYMid meet">

<g transform="translate(0.000000,60.000000) scale(0.100000,-0.100000)"
fill="#000000" stroke="none">
<path d="M2030 502 c0 -38 -3 -71 -6 -75 -4 -3 -19 3 -34 15 -23 17 -39 20
-84 16 -88 -7 -136 -65 -136 -165 0 -125 119 -203 218 -143 40 25 42 25 42 0
0 -16 7 -20 35 -20 l35 0 0 220 0 220 -35 0 -35 0 0 -68z m-33 -134 c29 -33
36 -72 19 -112 -26 -63 -89 -75 -137 -27 -39 39 -41 100 -4 136 32 33 93 34
122 3z"/>
<path d="M3390 501 c0 -30 -4 -40 -19 -44 -25 -6 -23 -60 3 -65 13 -3 16 -19
16 -102 0 -89 2 -102 23 -125 19 -23 32 -27 77 -28 55 -2 55 -2 55 28 0 24 -5
31 -25 33 -44 7 -50 19 -50 108 l0 83 38 3 c34 3 37 6 37 33 0 27 -3 30 -37
33 -37 3 -38 4 -38 43 0 39 0 39 -40 39 -40 0 -40 0 -40 -39z"/>
<path d="M191 513 c-129 -47 -194 -207 -134 -328 53 -106 179 -158 291 -121
162 54 216 262 99 384 -68 71 -170 97 -256 65z m176 -38 c73 -37 106 -89 111
-174 3 -55 -1 -74 -20 -111 -69 -127 -244 -148 -342 -40 -71 79 -74 190 -6
271 64 79 165 100 257 54z"/>
<path d="M205 328 c-31 -68 -59 -128 -62 -135 -3 -8 13 -13 54 -15 55 -3 58
-4 61 -31 4 -35 20 -35 24 1 3 26 6 27 66 30 34 2 62 6 62 9 0 11 -135 263
-141 263 -3 0 -32 -55 -64 -122z"/>
<path d="M1186 458 c-56 -12 -92 -42 -112 -93 -58 -152 85 -286 230 -215 60
29 87 74 88 144 1 116 -90 188 -206 164z m102 -94 c51 -57 14 -164 -57 -164
-43 0 -60 9 -76 41 -54 103 58 207 133 123z"/>
<path d="M570 448 c0 -16 86 -293 95 -307 3 -6 24 -11 45 -11 42 0 40 -5 80
150 7 25 15 49 18 55 3 5 18 -38 32 -95 l26 -105 44 0 44 0 43 135 c23 74 45
148 49 163 6 28 5 28 -32 25 l-39 -3 -22 -100 c-30 -130 -32 -134 -43 -115 -4
8 -18 61 -31 118 l-22 102 -43 0 c-49 0 -46 6 -81 -152 -10 -43 -21 -78 -24
-78 -4 0 -20 52 -35 115 l-28 115 -38 0 c-24 0 -38 -5 -38 -12z"/>
<path d="M1490 441 c-54 -28 -82 -84 -77 -154 4 -61 22 -95 71 -131 39 -30
143 -30 183 0 51 38 73 81 73 143 0 66 -23 111 -72 141 -43 26 -130 27 -178 1z
m148 -77 c51 -57 14 -164 -57 -164 -43 0 -60 9 -76 41 -54 103 58 207 133 123z"/>
<path d="M2152 298 l3 -163 40 0 40 0 3 111 c3 125 13 145 72 146 59 2 73 -25
78 -152 l5 -111 36 3 36 3 3 110 c3 126 12 145 72 145 62 0 74 -23 77 -148 l3
-107 37 0 38 0 3 75 c5 126 -5 179 -43 217 -28 28 -40 33 -83 33 -36 0 -59 -7
-86 -25 l-38 -25 -30 25 c-34 29 -111 35 -144 10 -25 -19 -44 -19 -44 0 0 11
-11 15 -40 15 l-40 0 2 -162z"/>
<path d="M2809 437 c-89 -59 -93 -216 -7 -280 38 -28 104 -34 144 -12 19 10
34 22 34 27 0 5 5 6 10 3 6 -3 10 -15 10 -26 0 -17 6 -20 38 -17 l37 3 3 163
2 162 -40 0 c-33 0 -40 -3 -40 -20 0 -11 -3 -20 -6 -20 -3 0 -17 9 -31 20 -36
28 -110 27 -154 -3z m162 -73 c35 -37 33 -108 -5 -141 -38 -32 -80 -30 -117 6
-62 62 -25 161 59 161 28 0 45 -7 63 -26z"/>
<path d="M3134 447 c-2 -7 -3 -80 -2 -162 l3 -150 40 0 40 0 3 105 c3 116 14
140 64 140 26 0 28 3 28 40 0 32 -4 40 -19 40 -10 0 -30 -9 -45 -21 l-26 -20
0 20 c0 18 -6 21 -40 21 -24 0 -43 -5 -46 -13z"/>
<path d="M3602 208 c-32 -32 4 -87 48 -73 25 8 37 50 20 70 -15 18 -51 20 -68
3z"/>
</g>
</svg>
